<?xml version="1.0" encoding="utf-8"?>
<!-- Generator: Adobe Illustrator 24.0.2, SVG Export Plug-In . SVG Version: 6.00 Build 0)  -->
<svg version="1.1" id="Layer_1" xmlns="http://www.w3.org/2000/svg" xmlns:xlink="http://www.w3.org/1999/xlink" x="0px" y="0px"
	 viewBox="0 0 930.5 309.3" style="enable-background:new 0 0 930.5 309.3;" xml:space="preserve">
<style type="text/css">
	.st0{fill:#231F20;}
	.st1{fill-rule:evenodd;clip-rule:evenodd;fill:#231F20;}
</style>
<g>
	<path class="st0" d="M159,117.3c-0.1,1-0.5,1.6-1.6,1.6c-0.3,0-0.5,0-1.2-0.1c-1.6-0.3-4.9-0.8-8.1-0.8s-5.1,0.4-6.4,1.5
		c-1.2,1.1-1.6,2.9-1.6,5.5v7.5h16.6c1.2,0,2.2,0.8,2.2,2.1v12.8c0,1.2-1,1.9-2.2,1.9H140v53.2c0,1.2-1,2.1-2.3,2.1h-19.3
		c-1.4,0-2.3-0.8-2.3-2.1v-53.2h-10.6c-1.4,0-2.3-0.7-2.3-1.9v-12.8c0-1.2,1-2.1,2.3-2.1H116v-8.6c0-14.9,7.7-22.5,24.3-22.5
		c10.7,0,16.9,1.6,18.9,2.3c1.4,0.4,1.6,1.6,1.5,2.3L159,117.3z"/>
	<path class="st0" d="M198.6,206.2c-31.5,0-35.5-16.5-35.5-37.7c0-21.3,4-37.8,35.5-37.8c31.5,0,35.6,16.6,35.6,37.8
		C234.2,189.8,230.1,206.2,198.6,206.2z M198.6,146.5c-10.7,0-11.2,6.3-11.2,22.1c0,15.6,0.5,21.9,11.2,21.9
		c10.8,0,11.2-6.3,11.2-21.9C209.8,152.8,209.4,146.5,198.6,146.5z"/>
	<path class="st0" d="M283.5,148.3c-7.7,0-14.4,0.8-15.6,1.1v53.1c0,1.2-0.8,2.1-2.2,2.1h-19.5c-1.2,0-2.2-0.8-2.2-2.1v-60.7
		c0-4.9,4.4-6.4,12.5-8.2c6.6-1.4,15.8-2.5,24.3-2.5h2.3c1.2,0,1.9,0.3,2.5,0.8c0.4,0.4,0.7,1.1,0.7,2.2v11.1
		C286.2,146.7,286.2,148.3,283.5,148.3z"/>
	<path class="st0" d="M404.4,204.5h-19.5c-1.4,0-2.2-0.8-2.2-2.1v-46.6c0-7.3-3.7-9.6-9-9.6c-4.4,0-9.6,1-10.8,1.2v55
		c0,1.2-1,2.1-2.3,2.1H341c-1.4,0-2.2-0.8-2.2-2.1v-46.6c0-7.3-3.2-9.6-8.5-9.6c-4.2,0-10.1,1-11.5,1.2v55c0,1.2-0.8,2.1-2.2,2.1
		h-19.5c-1.4,0-2.2-0.8-2.2-2.1v-60.6c0-5.1,4.3-6.6,12.6-8.4c6.7-1.4,17.1-2.7,25.8-2.7c8.6,0,14.5,2.1,18.4,4.5
		c2.6-1,14.3-4.5,25.9-4.5c17.5,0,28.9,3.8,28.9,21.7v50C406.6,203.6,405.8,204.5,404.4,204.5z"/>
	<path class="st0" d="M445.2,202.8c0,1-0.5,1.1-1.1,1.4c-1.5,0.7-4.8,1.6-9.7,1.6c-8.2,0-13.7-4-13.7-14.1v-86.4
		c0-1.1,0.7-1.8,1.6-2.1l7.4-1.9c1-0.3,1.8,0.5,1.8,1.6v88.4c0,4.9,3.4,5.6,6.2,5.6c1.9,0,3.8-0.3,4.8-0.5l0.5-0.1
		c0.4,0,1,0.1,1.1,1l1,4.7C445.2,202.5,445.2,202.7,445.2,202.8z"/>
	<path class="st0" d="M499,204.2c-4,1-10.6,2.1-17.8,2.1c-11.8,0-31.4-0.4-31.4-22.6c0-18.1,9.7-19.3,23.7-21.5l25.9-4.3v-6.4
		c0-4.4-0.1-8-4.9-9.7c-2.6-1.1-6.4-1.6-12.5-1.6c-10.6,0-19.6,2.6-25.4,4c-1.4,0.3-1.9,0.1-2.2-1l-1.2-6.2c-0.3-1.2,1-1.8,1.4-1.9
		c4.4-1.6,16.2-4.2,28.7-4.2c9.7,0,16,1.4,20,3.6c7,3.7,7.1,10.1,7.1,16.6v39.3C510.3,199.8,508.4,202,499,204.2z M499.5,166.5
		l-26.7,4.5c-6,1.1-11.8,2.1-11.8,12.1c0,13.7,11.2,14.7,20.3,14.7c6,0,12.5-0.8,18.2-2.7V166.5z"/>
	<path class="st0" d="M533.5,134.5c3.7-1,14.5-3.8,23.1-3.8c22.8,0,29.1,11.7,29.1,37.6c0,26.7-7.3,38-32.1,38
		c-9.7,0-18.6-1.6-23.2-3.2c-6.9-2.3-7.1-5.8-7.1-10.8v-87.2c0-1.1,0.5-1.5,1.6-1.8l7.4-1.9c1.2-0.4,1.8,0.8,1.8,1.6v23.9
		 M554.8,139.6c-7.5,0-18.2,2.6-20.7,3.3v52.2c1.5,0.5,8.8,2.5,19.2,2.5c15.8,0,21.1-7.4,21.1-29.1
		C574.4,146.5,570.6,139.6,554.8,139.6z"/>
	<path class="st0" d="M618.4,206.2c-12.1,0-22.5-3.7-24.3-4.4c-0.7-0.3-1.4-0.7-1-2.2l1.2-5.2c0.3-1,0.7-1.8,2.2-1.2
		c0.4,0.1,10.4,4,22.1,4c11.7,0,18.4-3.7,18.4-12.1c0-11.4-8.8-11-19.5-12.6c-6.7-1.1-23.9-2.3-23.9-20.4
		c0-17.7,15.8-21.4,27.8-21.4c11.8,0,21,2.5,22.5,2.9c1,0.3,1.4,0.8,1.2,1.6l-1,6.2c-0.1,0.8-0.5,1.1-1.5,1.1
		c-1.9-0.3-12.1-2.6-20.2-2.6c-9.9,0-18.1,2.7-18.1,11.4c0,9.3,9.3,10.4,17.8,11.5c12.3,1.6,25.6,2.6,25.6,21.3
		C648,201.9,634.3,206.2,618.4,206.2z"/>
	<g>
		<path class="st1" d="M827.1,119.7c-1.6,5.3-5.2,9.4-8.1,13.9c-7.2,11.2-14.6,22.3-21.9,33.4c-0.2,0.2-0.3,0.5-0.5,0.9
			c2.4,1.7,4.9,3.2,7.2,5c1,0.7,2,1.7,2.5,2.7c1.4,2.7,0.5,5.7-1.8,7.7c-8.4,6.9-16.8,13.7-25,20.9c-4.3,3.8-9.5,1.6-11.1-3
			c-5.9-17.7-12-35.3-18-52.9c-0.1-0.3-0.2-0.6-0.5-1.2c-0.5,1.3-0.8,2.3-1.2,3.3c-5.7,16.6-11.3,33.3-16.9,49.9
			c-0.2,0.6-0.4,1.2-0.6,1.7c-1.6,4.2-6.5,5.6-10,2.8c-3.4-2.8-6.8-5.6-10.2-8.5c-5-4.2-10.1-8.4-15.1-12.5c-4.1-3.4-3.9-8,0.5-11
			c2.5-1.7,5-3.4,7.6-5.2c-1-1.5-1.9-2.9-2.8-4.3c-8.7-12.9-17.4-25.8-26.1-38.7c-3.1-4.6-2-12.2,3.5-15c3-1.5,5.9-3.4,8.9-5
			c3.4-1.9,6.9-1.9,10.3,0.2c17,10.2,34,20.4,50.9,30.6c1,0.6,1.7,0.7,2.8,0c16.9-10.2,33.8-20.4,50.6-30.6
			c3.6-2.2,7.2-2.2,10.9-0.1c2.8,1.6,5.6,3.3,8.4,4.8c3,1.5,4.4,4.2,5.4,7.1c0.1,0.3,0.2,0.6,0.3,0.9
			C827.1,118.2,827.1,119,827.1,119.7z M817.8,123.9c-0.1-0.1-0.1-0.2-0.2-0.2c-19.9,5.8-39.8,11.7-60,17.6
			c11.4,7.7,22.6,15.3,33.9,22.9C800.4,150.6,809.1,137.3,817.8,123.9z M743,141.2c-20-5.9-39.7-11.7-59.4-17.5
			c0,0.1-0.1,0.2-0.1,0.2c8.9,13.2,17.8,26.4,26.8,39.7C721.2,156.1,732,148.8,743,141.2z M725.8,199c4.4-13,8.8-25.9,13.1-38.8
			c-0.4,0.2-0.7,0.4-0.9,0.7c-4.2,5.9-8.4,11.7-12.6,17.6c-0.6,0.8-1.1,1.6-1.7,2.4c-2.6,3.3-7.7,3.2-10.1-0.3
			c-1.7-2.4-3.3-4.9-5-7.4c-2.6,1.7-5,3.4-7.6,5.2C709.2,185.3,717.4,192,725.8,199z M681.8,116c14.3,4.2,28.3,8.4,42.4,12.6
			c-0.1-0.4-0.3-0.6-0.5-0.7c-9.6-5.8-19.3-11.6-28.9-17.4c-1.1-0.7-2.3-0.6-3.4,0.1c-2.3,1.3-4.6,2.6-6.8,3.9
			C683.7,114.9,682.9,115.4,681.8,116z M732.2,157.3c-0.1-0.1-0.2-0.2-0.2-0.2c-5.9,4.1-11.9,8.1-17.9,12.3c1.6,2.4,3.1,4.5,4.7,6.8
			C723.3,169.7,727.8,163.5,732.2,157.3z"/>
	</g>
</g>
<g>
</g>
</svg>
